<svg width="132" height="36" viewBox="0 0 132 36" fill="none" xmlns="http://www.w3.org/2000/svg">
    <path d="M1.09863 4.72241V23.1534H5.08595V15.953V11.677V4.72241H1.09863Z" fill="white"></path>
    <path d="M3.92773 12.2363V15.9891L10.3749 15.4625V12.7802L3.92773 12.2363Z" fill="white"></path>
    <path d="M25.6218 23.4988L32.5911 13.5027L25.6981 4.42237H31.2176L36.3555 11.3662H38.3394V4.42237H43.0704V11.3662H45.0543L50.1922 4.42237H55.788L48.9205 13.2738L55.8643 23.4988H50.294L45.0543 15.7156H43.0704V23.4988H38.3394V15.7156H36.3555L31.0141 23.4988H25.6218ZM57.4279 23.4988V4.42237H62.2352V11.3407H72.1041V4.42237H76.8859V23.4988H72.1041V15.6647H62.2352V23.4988H57.4279ZM80.8393 23.4988V4.42237H85.6465V9.89094H90.9879C94.9304 9.89094 98.2115 12.2818 98.2115 16.7076C98.2115 20.7263 95.261 23.4988 90.9879 23.4988H80.8393ZM85.6465 19.2257H90.8099C92.3614 19.2257 93.328 18.0811 93.328 16.7076C93.328 15.1815 92.3869 14.1641 90.8099 14.1641H85.6465V19.2257ZM100.068 23.4988V4.42237H104.876V23.4988H100.068ZM108.821 23.4988V4.42237H113.425V16.8602L123.98 4.42237H128.254V23.4988H123.675V11.0355L113.12 23.4988H108.821Z" fill="white"></path>
    <path d="M0.763613 34.3215V27.7387H5.93336V29.222H2.4225V34.3215H0.763613ZM12.8326 34.4356C10.5329 34.4356 8.90039 33.0401 8.90039 31.0301C8.90039 29.0201 10.5329 27.6246 12.8326 27.6246C15.1409 27.6246 16.7647 29.0201 16.7647 31.0301C16.7647 33.0401 15.1409 34.4356 12.8326 34.4356ZM10.6207 31.0301C10.6207 32.1975 11.4809 32.9523 12.8326 32.9523C14.193 32.9523 15.0532 32.1975 15.0532 31.0301C15.0532 29.8627 14.193 29.1079 12.8326 29.1079C11.4809 29.1079 10.6207 29.8627 10.6207 31.0301ZM24.1253 30.8282C24.6607 30.8282 25.0118 30.521 25.0118 30.0119C25.0118 29.4853 24.6607 29.1869 24.1253 29.1869H22.2558V30.8282H24.1253ZM20.5969 34.3215V27.7387H24.1868C25.6789 27.7387 26.697 28.6515 26.697 30.0119C26.697 31.3461 25.6789 32.2765 24.1868 32.2765H22.2558V34.3215H20.5969ZM33.9516 34.4356C31.652 34.4356 30.0194 33.0401 30.0194 31.0301C30.0194 29.0201 31.652 27.6246 33.9516 27.6246C36.26 27.6246 37.8837 29.0201 37.8837 31.0301C37.8837 33.0401 36.26 34.4356 33.9516 34.4356ZM31.7397 31.0301C31.7397 32.1975 32.5999 32.9523 33.9516 32.9523C35.312 32.9523 36.1722 32.1975 36.1722 31.0301C36.1722 29.8627 35.312 29.1079 33.9516 29.1079C32.5999 29.1079 31.7397 29.8627 31.7397 31.0301ZM47.9522 27.7387V32.8382H48.9002V35.9014H47.3115V34.3215H42.4402V35.9014H40.8515V32.8382H41.4396C42.2646 32.2852 42.3436 31.1793 42.3875 29.3186L42.4226 27.7387H47.9522ZM43.2389 32.8382H46.3285V29.2132H43.9937L43.985 29.6082C43.9411 31.232 43.7304 32.2501 43.2389 32.8382ZM52.2121 32.4344V31.0652H55.3982V32.4344H52.2121ZM59.0279 31.0301C59.0279 29.0728 60.6166 27.6246 62.8723 27.6246C64.6629 27.6246 65.9707 28.4759 66.3481 29.8013L64.6716 30.2577C64.4259 29.5204 63.8554 29.1079 62.8723 29.1079C61.5558 29.1079 60.7483 29.8803 60.7483 31.0301C60.7483 32.1799 61.5119 32.9523 62.846 32.9523C63.8378 32.9523 64.4873 32.5661 64.7506 31.8025L66.4183 32.2413C65.9356 33.5843 64.6365 34.4356 62.8372 34.4356C60.5113 34.4356 59.0279 33.0225 59.0279 31.0301ZM69.9187 34.3215V27.7387H76.5016V34.3215H74.8603V29.222H71.5776V34.3215H69.9187ZM81.8315 34.3215L82.7619 32.6275L79.8567 27.7387H81.7438L83.6309 30.9248L85.3424 27.7387H87.1066L83.587 34.3215H81.8315ZM92.4248 34.3215V29.222H90.1515V27.7387H96.3658V29.222H94.0837V34.3215H92.4248ZM99.9987 34.3215V27.7387H101.658V30.126H105.063V27.7387H106.713V34.3215H105.063V31.6182H101.658V34.3215H99.9987ZM110.974 34.3215V27.7387H112.563V32.0307L116.205 27.7387H117.68V34.3215H116.1V30.0207L112.457 34.3215H110.974ZM121.941 34.3215V27.7387H123.599V30.1173H124.477L126.68 27.7387H128.796L125.846 30.8107L128.857 34.3215H126.768L124.468 31.6357H123.599V34.3215H121.941Z" fill="white"></path>
    <circle cx="119.02" cy="2.75344" r="2.43215" fill="white"></circle>
    <path d="M13.0198 19.0558C13.0604 18.9531 13.1839 18.9121 13.2801 18.9663C13.9348 19.3351 14.6662 19.5711 15.4361 19.6513C15.5468 19.6628 15.6239 19.769 15.5962 19.8767L14.6178 23.6895C14.5953 23.7775 14.5099 23.8344 14.4202 23.8198C13.45 23.6618 12.5202 23.3629 11.6567 22.9381C11.5747 22.8977 11.5384 22.8009 11.572 22.7158L13.0198 19.0558ZM20.515 22.7035C20.5486 22.7884 20.5125 22.8851 20.4307 22.9256C19.5686 23.3526 18.6402 23.6539 17.6709 23.8145C17.5811 23.8293 17.4955 23.7724 17.4728 23.6842L16.4934 19.8725C16.4658 19.7652 16.5421 19.6593 16.6522 19.6471C17.4208 19.562 18.1502 19.3215 18.8024 18.9487C18.8987 18.8936 19.023 18.9344 19.0638 19.0375L20.515 22.7035ZM10.6949 16.3414C10.7886 16.2819 10.9132 16.3221 10.9586 16.4233C11.27 17.1167 11.7096 17.7151 12.2197 18.1919C12.2425 18.2132 12.2656 18.2342 12.2889 18.2549C12.3719 18.3288 12.3721 18.4594 12.2865 18.5303L9.25242 21.0409C9.18225 21.0989 9.07943 21.0947 9.01555 21.0297C8.35541 20.3587 7.77155 19.5693 7.30989 18.6794C7.26798 18.5986 7.29568 18.4996 7.37251 18.4508L10.6949 16.3414ZM24.697 18.4402C24.7737 18.4889 24.8015 18.5878 24.7597 18.6686C24.2995 19.5585 23.7174 20.3481 23.0586 21.0197C22.9948 21.0847 22.8919 21.0891 22.8216 21.031L19.7812 18.5161C19.6958 18.4454 19.6958 18.3152 19.7783 18.2411C19.7963 18.2249 19.8143 18.2085 19.832 18.1919C20.346 17.7115 20.7886 17.1076 21.1003 16.4076C21.1456 16.306 21.2704 16.2655 21.3643 16.3251L24.697 18.4402ZM10.4191 12.7733C10.5295 12.7803 10.6066 12.8853 10.5845 12.9936C10.5105 13.355 10.4697 13.7336 10.4697 14.1274C10.4697 14.5199 10.5102 14.8973 10.5837 15.2576C10.6058 15.3658 10.5287 15.4707 10.4184 15.4777L6.49683 15.7247C6.40556 15.7305 6.32466 15.666 6.31154 15.5755C6.24361 15.1071 6.20705 14.6234 6.20703 14.1265C6.20705 13.6293 6.24355 13.1451 6.31153 12.6764C6.32466 12.5859 6.40553 12.5215 6.49678 12.5272L10.4191 12.7733ZM25.5677 12.5272C25.6589 12.5215 25.7398 12.5859 25.7529 12.6764C25.8209 13.1451 25.8574 13.6292 25.8574 14.1265C25.8574 14.6227 25.8207 15.1057 25.7529 15.5736C25.7398 15.6641 25.6589 15.7285 25.5676 15.7228L21.6333 15.4757C21.5231 15.4688 21.446 15.3639 21.468 15.2556C21.5413 14.896 21.582 14.5193 21.582 14.1274C21.582 13.7339 21.5412 13.3556 21.4673 12.9945C21.4451 12.8862 21.5222 12.7812 21.6326 12.7743L25.5677 12.5272ZM22.8264 7.2249C22.8967 7.16678 22.9997 7.17117 23.0635 7.23631C23.7213 7.90784 24.3022 8.69785 24.7617 9.58726C24.8034 9.66803 24.7757 9.76696 24.6989 9.81567L21.3653 11.9307C21.2714 11.9903 21.1465 11.9498 21.1013 11.8482C20.7895 11.1479 20.3462 10.5446 19.832 10.064C19.8149 10.048 19.7977 10.0321 19.7804 10.0164C19.6984 9.94194 19.6987 9.81147 19.7841 9.74085L22.8264 7.2249ZM12.2836 9.72565C12.3692 9.79646 12.3694 9.92751 12.2871 10.0021C12.2644 10.0225 12.242 10.0431 12.2197 10.064C11.7096 10.5408 11.2691 11.1384 10.9577 11.8316C10.9122 11.9328 10.7876 11.973 10.6939 11.9135L7.37054 9.80407C7.29372 9.75531 7.26601 9.65626 7.30789 9.57548C7.76883 8.6863 8.35158 7.89702 9.0107 7.22622C9.07455 7.16124 9.1774 7.15693 9.2476 7.21499L12.2836 9.72565ZM17.4699 4.56673C17.4926 4.47859 17.5782 4.42162 17.668 4.43647C18.6375 4.59677 19.5663 4.89848 20.4287 5.32539C20.5105 5.36591 20.5467 5.46263 20.513 5.54753L19.0608 9.21463C19.02 9.3177 18.8959 9.35847 18.7996 9.30352C18.1473 8.9313 17.4178 8.69138 16.6494 8.60672C16.5392 8.59459 16.4629 8.48867 16.4904 8.38136L17.4699 4.56673ZM15.601 8.37693C15.6287 8.48474 15.5515 8.59102 15.4408 8.60246C14.6704 8.68204 13.9382 8.91748 13.283 9.28588C13.1867 9.33998 13.0634 9.29901 13.0227 9.19635L11.574 5.53521C11.5403 5.45015 11.5767 5.35327 11.6588 5.31291C12.5225 4.88826 13.4527 4.58973 14.4232 4.43206C14.5129 4.4175 14.5982 4.47442 14.6208 4.56238L15.601 8.37693Z" fill="white"></path>
</svg>